<?xml version="1.0" encoding="UTF-8"?>
<svg version="1.1" xmlns="http://www.w3.org/2000/svg" width="1024" height="559">
<path d="M0 0 C337.92 0 675.84 0 1024 0 C1024 184.47 1024 368.94 1024 559 C686.08 559 348.16 559 0 559 C0 374.53 0 190.06 0 0 Z " fill="#FEFEFE" transform="translate(0,0)"/>
<path d="M0 0 C12.24517799 -0.25761244 24.19565135 0.03383617 36.28515625 2.06640625 C37.16333008 2.21174805 38.04150391 2.35708984 38.94628906 2.50683594 C60.11397788 6.14491899 80.56110444 12.71350226 99.43457031 23.05712891 C101.34839295 24.10089445 103.27975608 25.1056613 105.21484375 26.109375 C119.87427606 33.8621486 132.87717893 44.09208348 144.77539062 55.60791016 C145.82508301 56.62195646 146.88160668 57.62895947 147.94335938 58.63037109 C179.55865401 88.47242908 198.03722268 127.1086387 205.81079102 169.49438477 C206.13427391 171.24831803 206.4767387 172.99883082 206.83569336 174.74584961 C208.53504382 183.61568552 208.63845477 192.38665477 208.59765625 201.37890625 C208.59649811 202.16854767 208.59533997 202.95818909 208.59414673 203.77175903 C208.55574996 217.04580686 207.72349312 229.99301468 205.28515625 243.06640625 C204.94291016 244.9071875 204.94291016 244.9071875 204.59375 246.78515625 C203.92815925 249.91913786 203.1522851 252.98240954 202.28515625 256.06640625 C201.94871094 257.26523437 201.61226562 258.4640625 201.265625 259.69921875 C195.9079705 278.05311806 188.43157495 294.8650519 178.28515625 311.06640625 C177.71982178 311.97156982 177.71982178 311.97156982 177.14306641 312.89501953 C170.79034659 322.96253995 163.40736025 331.98918787 155.36328125 340.7421875 C153.94014026 342.33385834 152.57046722 343.974514 151.25 345.65234375 C149.47800228 347.82947018 147.73483083 349.57328496 145.59765625 351.37890625 C143.46630271 353.19406998 141.34978109 355.00672331 139.29296875 356.90625 C113.4149837 380.78235318 79.30808044 397.56240989 44.62109375 403.609375 C42.55315791 404.01397114 40.50930916 404.53766075 38.47265625 405.078125 C-6.138422 416.32648235 -60.11728962 401.93035202 -98.71484375 379.06640625 C-120.84379837 365.2872609 -140.8053925 347.54610997 -156.47314453 326.71386719 C-157.59135862 325.23024377 -158.72816365 323.76067644 -159.8671875 322.29296875 C-167.48003655 312.25305298 -173.26284455 301.07906639 -178.96484375 289.87890625 C-179.42213867 288.99102417 -179.42213867 288.99102417 -179.88867188 288.08520508 C-185.038325 277.76782499 -188.5566994 266.92365971 -191.40014648 255.77490234 C-191.89942429 253.82779173 -192.4186764 251.88676814 -192.93945312 249.9453125 C-196.98877417 234.50236952 -198.10112184 219.1746646 -198.02734375 203.25390625 C-198.02618561 202.47225098 -198.02502747 201.6905957 -198.02383423 200.88525391 C-197.98836545 188.7397537 -197.35812129 176.96115519 -194.71484375 165.06640625 C-194.47507812 163.96683594 -194.2353125 162.86726562 -193.98828125 161.734375 C-193.29409811 158.82414569 -192.50927789 155.95063267 -191.71484375 153.06640625 C-191.46347656 151.98230469 -191.21210938 150.89820313 -190.953125 149.78125 C-182.83883356 116.03901544 -163.48819343 85.92648949 -139.71484375 61.06640625 C-138.84085937 60.13957031 -137.966875 59.21273437 -137.06640625 58.2578125 C-127.3460755 48.20967001 -116.30790194 39.84595845 -104.71484375 32.06640625 C-103.97234375 31.54046875 -103.22984375 31.01453125 -102.46484375 30.47265625 C-96.05588658 26.11785202 -89.24472097 22.74558761 -82.27734375 19.37890625 C-81.32448486 18.91516602 -80.37162598 18.45142578 -79.38989258 17.97363281 C-72.64838472 14.77474156 -65.84180871 12.26471095 -58.71484375 10.06640625 C-57.83836182 9.79465576 -56.96187988 9.52290527 -56.05883789 9.24291992 C-37.30618518 3.54324948 -19.56843308 0.47865232 0 0 Z " fill="#FCFCFC" transform="translate(506.71484375,75.93359375)"/>
<path d="M0 0 C1.62083496 -0.00833862 1.62083496 -0.00833862 3.27441406 -0.0168457 C20.22840334 0.13420644 33.96014198 4.58502017 48.8125 12.3125 C50.31085969 13.04503141 51.81052564 13.77490893 53.3125 14.5 C56.8125 16.3125 56.8125 16.3125 59.5625 18.5 C63.7290424 20.82364865 67.1975587 20.83829923 71.91015625 20.94140625 C76.33704226 21.50742801 78.93523577 23.41017108 82 26.5625 C83.8125 29.3125 83.8125 29.3125 84.5625 32.6875 C86.07673012 37.07876735 88.08042367 38.71259421 91.64453125 41.5390625 C111.55439586 57.82569049 125.97883257 84.73976284 129.15625 110.05078125 C132.00084618 139.24740036 126.77348726 168.0750944 108.20703125 191.44921875 C107.02173828 192.86654297 107.02173828 192.86654297 105.8125 194.3125 C104.99136719 195.30894531 104.17023438 196.30539062 103.32421875 197.33203125 C95.29274479 206.74985468 85.51605801 215.11547313 74 219.875 C71.62550265 220.83478756 71.62550265 220.83478756 69.8125 222.3125 C68.85157223 224.88212381 68.51100785 227.21131826 68.21484375 229.93359375 C67.8125 232.3125 67.8125 232.3125 65.5625 235.375 C62.51346581 237.52318318 60.45373729 237.82465467 56.8125 238.3125 C57.24820313 238.95574219 57.68390625 239.59898437 58.1328125 240.26171875 C66.11081696 252.3668727 70.74670056 264.26392494 73.8125 278.3125 C62.92308578 284.61689771 51.88435112 288.88932285 39.8125 292.3125 C38.24048828 292.76302734 38.24048828 292.76302734 36.63671875 293.22265625 C-5.37556053 304.06629254 -51.29171349 295.05710383 -88.1875 273.3125 C-93.05318071 270.23679079 -97.63963121 266.83653266 -102.1875 263.3125 C-103.64929688 262.18521484 -103.64929688 262.18521484 -105.140625 261.03515625 C-115.4426745 252.84819233 -124.0047573 243.58286726 -132.1875 233.3125 C-132.5175 232.9825 -132.8475 232.6525 -133.1875 232.3125 C-133.74940762 227.0574766 -132.14497951 223.3582323 -129.75 218.8125 C-129.39091553 218.11616455 -129.03183105 217.4198291 -128.66186523 216.70239258 C-120.1640945 200.53075504 -109.26603132 187.00510744 -96.1875 174.3125 C-95.18535178 173.31465285 -94.18419424 172.31579487 -93.1875 171.3125 C-93.8475 171.3125 -94.5075 171.3125 -95.1875 171.3125 C-97.94417092 167.91967426 -98.82504062 164.76375925 -98.68359375 160.37890625 C-97.75886894 156.52709974 -95.07981952 153.89760424 -92.1875 151.3125 C-91.5275 150.9825 -90.8675 150.6525 -90.1875 150.3125 C-90.55538168 146.63368324 -91.35952427 143.74345377 -93.0625 140.5 C-95.29916984 136.20430197 -96.88852271 131.97764426 -98.1875 127.3125 C-98.46851563 126.34828125 -98.74953125 125.3840625 -99.0390625 124.390625 C-104.64066392 101.67011083 -103.21982982 74.76384737 -91.1875 54.3125 C-90.74792969 53.43851563 -90.30835938 52.56453125 -89.85546875 51.6640625 C-86.17081363 44.41655903 -81.57776353 38.38002556 -76.1875 32.3125 C-75.57261719 31.61382812 -74.95773437 30.91515625 -74.32421875 30.1953125 C-55.19747933 9.798918 -27.43947767 0.11844099 0 0 Z " fill="#020202" transform="translate(514.1875,146.6875)"/>
<path d="M0 0 C12.24517799 -0.25761244 24.19565135 0.03383617 36.28515625 2.06640625 C37.16333008 2.21174805 38.04150391 2.35708984 38.94628906 2.50683594 C60.11397788 6.14491899 80.56110444 12.71350226 99.43457031 23.05712891 C101.34839295 24.10089445 103.27975608 25.1056613 105.21484375 26.109375 C119.87427606 33.8621486 132.87717893 44.09208348 144.77539062 55.60791016 C145.82508301 56.62195646 146.88160668 57.62895947 147.94335938 58.63037109 C179.55865401 88.47242908 198.03722268 127.1086387 205.81079102 169.49438477 C206.13427391 171.24831803 206.4767387 172.99883082 206.83569336 174.74584961 C208.53504382 183.61568552 208.63845477 192.38665477 208.59765625 201.37890625 C208.59649811 202.16854767 208.59533997 202.95818909 208.59414673 203.77175903 C208.55574996 217.04580686 207.72349312 229.99301468 205.28515625 243.06640625 C204.94291016 244.9071875 204.94291016 244.9071875 204.59375 246.78515625 C203.92815925 249.91913786 203.1522851 252.98240954 202.28515625 256.06640625 C201.94871094 257.26523437 201.61226562 258.4640625 201.265625 259.69921875 C195.9079705 278.05311806 188.43157495 294.8650519 178.28515625 311.06640625 C177.71982178 311.97156982 177.71982178 311.97156982 177.14306641 312.89501953 C170.79034659 322.96253995 163.40736025 331.98918787 155.36328125 340.7421875 C153.94014026 342.33385834 152.57046722 343.974514 151.25 345.65234375 C149.47800228 347.82947018 147.73483083 349.57328496 145.59765625 351.37890625 C143.46630271 353.19406998 141.34978109 355.00672331 139.29296875 356.90625 C113.4149837 380.78235318 79.30808044 397.56240989 44.62109375 403.609375 C42.55315791 404.01397114 40.50930916 404.53766075 38.47265625 405.078125 C-6.138422 416.32648235 -60.11728962 401.93035202 -98.71484375 379.06640625 C-120.84379837 365.2872609 -140.8053925 347.54610997 -156.47314453 326.71386719 C-157.59135862 325.23024377 -158.72816365 323.76067644 -159.8671875 322.29296875 C-167.48003655 312.25305298 -173.26284455 301.07906639 -178.96484375 289.87890625 C-179.42213867 288.99102417 -179.42213867 288.99102417 -179.88867188 288.08520508 C-185.038325 277.76782499 -188.5566994 266.92365971 -191.40014648 255.77490234 C-191.89942429 253.82779173 -192.4186764 251.88676814 -192.93945312 249.9453125 C-196.98877417 234.50236952 -198.10112184 219.1746646 -198.02734375 203.25390625 C-198.02618561 202.47225098 -198.02502747 201.6905957 -198.02383423 200.88525391 C-197.98836545 188.7397537 -197.35812129 176.96115519 -194.71484375 165.06640625 C-194.47507812 163.96683594 -194.2353125 162.86726562 -193.98828125 161.734375 C-193.29409811 158.82414569 -192.50927789 155.95063267 -191.71484375 153.06640625 C-191.46347656 151.98230469 -191.21210938 150.89820313 -190.953125 149.78125 C-182.83883356 116.03901544 -163.48819343 85.92648949 -139.71484375 61.06640625 C-138.84085937 60.13957031 -137.966875 59.21273437 -137.06640625 58.2578125 C-127.3460755 48.20967001 -116.30790194 39.84595845 -104.71484375 32.06640625 C-103.97234375 31.54046875 -103.22984375 31.01453125 -102.46484375 30.47265625 C-96.05588658 26.11785202 -89.24472097 22.74558761 -82.27734375 19.37890625 C-81.32448486 18.91516602 -80.37162598 18.45142578 -79.38989258 17.97363281 C-72.64838472 14.77474156 -65.84180871 12.26471095 -58.71484375 10.06640625 C-57.83836182 9.79465576 -56.96187988 9.52290527 -56.05883789 9.24291992 C-37.30618518 3.54324948 -19.56843308 0.47865232 0 0 Z M-36.71484375 34.06640625 C-37.89433594 34.35515625 -39.07382812 34.64390625 -40.2890625 34.94140625 C-43.50125126 35.8442046 -46.58686202 36.90437565 -49.71484375 38.06640625 C-50.43671875 38.32905273 -51.15859375 38.59169922 -51.90234375 38.86230469 C-75.3165564 47.46208653 -95.70737151 59.71975868 -113.71484375 77.06640625 C-114.51486816 77.82775879 -114.51486816 77.82775879 -115.33105469 78.60449219 C-146.60793791 108.48586473 -166.9672119 150.05919578 -168.82470703 193.64428711 C-169.49219872 224.65460468 -164.4726275 254.49005755 -149.71484375 282.06640625 C-149.20824219 283.03449219 -148.70164062 284.00257813 -148.1796875 285 C-140.44444299 299.54225967 -130.95265613 312.05912583 -119.71484375 324.06640625 C-118.40773438 325.47212891 -118.40773438 325.47212891 -117.07421875 326.90625 C-89.30696909 356.07949751 -48.31461837 376.03886029 -7.79296875 377.17651367 C-4.11372358 377.23715383 -0.43507221 377.25210237 3.24462891 377.25170898 C5.51744512 377.25388926 7.78976946 377.27209668 10.0625 377.29101562 C22.93797018 377.34165524 35.45351465 376.12797466 47.97265625 372.94140625 C48.80369873 372.73040283 49.63474121 372.51939941 50.4909668 372.30200195 C78.34215786 364.87937828 104.22288163 349.65921985 125.28515625 330.06640625 C125.28515625 329.40640625 125.28515625 328.74640625 125.28515625 328.06640625 C125.86007812 327.82535156 126.435 327.58429688 127.02734375 327.3359375 C151.2602913 313.71014519 167.12814123 272.51778063 174.23339844 247.234375 C180.54912815 223.53131422 181.4351085 198.24647484 177.28515625 174.06640625 C177.17220215 173.38449219 177.05924805 172.70257813 176.94287109 172 C171.40009866 139.7673314 155.54368998 111.43516286 134.28515625 87.06640625 C133.20427734 85.7825 133.20427734 85.7825 132.1015625 84.47265625 C131.48152344 83.74046875 130.86148437 83.00828125 130.22265625 82.25390625 C129.69542969 81.62871094 129.16820312 81.00351563 128.625 80.359375 C127.35562463 78.83493715 127.35562463 78.83493715 125.28515625 79.06640625 C124.95515625 78.07640625 124.62515625 77.08640625 124.28515625 76.06640625 C120.84550088 72.80349207 117.03730037 69.96048947 113.28515625 67.06640625 C112.70330566 66.6163623 112.12145508 66.16631836 111.52197266 65.70263672 C92.22399631 50.88965784 70.91755744 40.03631622 47.28515625 34.06640625 C46.11082031 33.75960937 44.93648437 33.4528125 43.7265625 33.13671875 C31.11084192 30.01622249 18.46886515 29.79371232 5.53515625 29.75390625 C4.71934082 29.75128784 3.90352539 29.74866943 3.06298828 29.74597168 C-10.53058308 29.74131179 -23.47907707 30.75967891 -36.71484375 34.06640625 Z " fill="#010101" transform="translate(506.71484375,75.93359375)"/>
<path d="M0 0 C3.29219428 0.16847091 3.29219428 0.16847091 6 0 C5.64961022 4.29227476 5.35599642 6.46061148 2.9375 10.125 C-0.17369385 15.15077468 0.05299467 21.32493131 1 27 C3.60988371 31.77042424 7.10238404 35.29533532 11 39 C16.54445442 44.26997648 21.13728288 48.95224775 22.125 56.875 C22.60909509 60.38468941 23.12988759 63.72503261 24.125 67.125 C25.18934799 71.8385411 25.14456303 76.19892611 25 81 C17.04587978 84.02456615 9.8224553 84.37114033 1.375 84.1875 C0.18003906 84.17396484 -1.01492188 84.16042969 -2.24609375 84.14648438 C-5.164548 84.11146292 -8.08202348 84.06234993 -11 84 C-10.12058414 86.31425531 -10.12058414 86.31425531 -7.18359375 87.1171875 C-1.8879258 88.50031366 3.50544477 88.21266818 8.9375 88.125 C10.53561523 88.11146484 10.53561523 88.11146484 12.16601562 88.09765625 C14.77758034 88.07423414 17.38866937 88.04143452 20 88 C19.30937048 94.82407744 17.31089031 97.92461682 13 103 C12.29875 103.99 11.5975 104.98 10.875 106 C6.15139322 109.28598732 1.54765569 108.94600706 -4 108 C-11.08350998 105.42417819 -16.57673224 101.80320302 -20 95 C-20.31582031 94.38253906 -20.63164063 93.76507813 -20.95703125 93.12890625 C-23.7538546 86.78177747 -24.25848114 80.46082312 -21.875 73.90625 C-20.98890997 71.87227062 -20.06431555 69.85442642 -19.09375 67.859375 C-17.85902821 64.63145945 -17.63250748 62.4283796 -18 59 C-18.9305502 56.92910422 -18.9305502 56.92910422 -20.4375 55.1875 C-20.98019531 54.51074219 -21.52289062 53.83398438 -22.08203125 53.13671875 C-24.16836959 50.81242736 -26.3724923 48.66315203 -28.625 46.5 C-34.58153419 40.70391118 -38.10699155 34.2619157 -38.25 25.8125 C-38.13309182 16.92747847 -35.00229509 10.51757333 -29 4 C-20.24577262 -3.50893389 -10.58742545 -3.38797614 0 0 Z " fill="#F8F8F8" transform="translate(589,226)"/>
<path d="M0 0 C2.21735148 1.71169072 4.17941371 3.38363289 6.1875 5.3125 C6.75629883 5.85229492 7.32509766 6.39208984 7.91113281 6.94824219 C27.97712975 26.31648712 41.41221475 52.46184375 42.33837891 80.65380859 C42.75881225 108.30711082 32.43659882 133.59960695 13.53515625 153.609375 C10.47367007 156.72544197 7.64182198 159.57211868 4 162 C-2.11995168 161.84700121 -7.59056227 158.60846552 -13 156 C-13 155.34 -13 154.68 -13 154 C-11.91460938 153.75765625 -10.82921875 153.5153125 -9.7109375 153.265625 C-8.26547493 152.92772466 -6.82017061 152.58914687 -5.375 152.25 C-4.66214844 152.09273437 -3.94929687 151.93546875 -3.21484375 151.7734375 C1.65714851 150.61131091 4.93457956 148.90561581 9 146 C9.66 146 10.32 146 11 146 C11.41765625 145.13181641 11.41765625 145.13181641 11.84375 144.24609375 C12.95400874 142.08934113 14.17946873 140.09563504 15.5 138.0625 C18.73550494 132.91984992 20.39149429 127.85955652 22 122 C22.66 122 23.32 122 24 122 C24.26925603 113.29405491 23.82077517 105.34852706 21 97.0625 C20 94 20 94 19.81640625 91.61328125 C18.85776852 81.27474203 11.90960214 75.62376914 4.71875 68.8515625 C1.15073063 65.2689201 -0.48226798 62.7579543 -0.8125 57.625 C-0.4283913 51.3657742 2.46100013 47.00949843 6 42 C8.13760011 37.72479978 7.57249618 32.62812335 7 28 C4.66009561 21.59003389 1.36140484 16.22420449 -3 11 C-2.34 14.3 -1.68 17.6 -1 21 C-1.66 21 -2.32 21 -3 21 C-3.29132812 20.443125 -3.58265625 19.88625 -3.8828125 19.3125 C-6.83038892 13.82518793 -10.13147334 8.87886352 -14 4 C-9.33420088 0.40940617 -5.90781456 -1.90438148 0 0 Z " fill="#F6F6F6" transform="translate(595,189)"/>
<path d="M0 0 C8.31645851 5.40062702 12.8207393 13.24743455 15 22.7890625 C16.32947213 36.43830973 15.56665173 49.23288783 6.55859375 60.1953125 C3.02480413 63.80881166 -0.44875709 64.94771856 -5.375 65.2265625 C-13.43597544 64.88900071 -18.80040923 60.70076071 -24.18359375 54.98046875 C-32.41021732 45.05544548 -35.76456171 32.96117819 -35.38671875 20.21875 C-34.41192078 11.57357205 -29.80347819 7.04918667 -23.375 1.5390625 C-17.22194475 -2.99476768 -6.91986939 -2.79317645 0 0 Z " fill="#F5F5F5" transform="translate(485,223.2109375)"/>
<path d="M0 0 C1.8125 1.3125 1.8125 1.3125 3 3 C3 3.99 3 4.98 3 6 C2.00742187 6.47308594 1.01484375 6.94617188 -0.0078125 7.43359375 C-22.56886682 18.34490951 -40.88536567 32.70310474 -58 51 C-58.58523438 51.61762207 -59.17046875 52.23524414 -59.7734375 52.87158203 C-65.80799089 58.99734676 -65.80799089 58.99734676 -67.96484375 66.91796875 C-67.22148943 69.50663479 -66.28770479 71.64299971 -65 74 C-61.06761035 85.79716896 -64.45656685 99.8024042 -69.09765625 110.8359375 C-69.80364319 112.52908366 -70.41989988 114.25969965 -71 116 C-57.85747914 146.11351519 -26.16942901 168.45665363 3 181 C1.06745228 183.0245738 -0.63158688 184.42105792 -3 186 C-7.48878763 185.6955431 -11.18391845 183.55644241 -15.0625 181.4375 C-15.7237085 181.07817383 -16.38491699 180.71884766 -17.06616211 180.34863281 C-41.66961376 166.78044394 -62.39898284 146.77890942 -77.1875 122.9375 C-77.58678711 122.30602051 -77.98607422 121.67454102 -78.39746094 121.02392578 C-81.03148089 116.62399615 -81.03148089 116.62399615 -80.890625 113.83203125 C-79.87172355 111.73613309 -78.77082007 109.74354884 -77.5625 107.75 C-71.2372464 96.50713594 -72.17052496 85.08510926 -75.1484375 72.8125 C-75.87365818 70.04873825 -75.87365818 70.04873825 -77.1640625 67.9375 C-78.38689924 65.10326158 -78.06140858 63.91260544 -77 61 C-75.2225267 58.32458829 -73.19466326 55.89069507 -71.125 53.4375 C-70.54580811 52.73947266 -69.96661621 52.04144531 -69.36987305 51.32226562 C-58.37304609 38.16751974 -58.37304609 38.16751974 -53 33 C-52.34 33 -51.68 33 -51 33 C-51 32.34 -51 31.68 -51 31 C-48.03566084 28.24358042 -44.81910296 25.79123624 -41.63818359 23.28955078 C-40.02926721 22.02303866 -38.4305933 20.74438477 -36.83203125 19.46484375 C-9.74622175 -2.00657507 -9.74622175 -2.00657507 0 0 Z " fill="#F1F1F1" transform="translate(587,175)"/>
<path d="M0 0 C2.11989167 0.00849607 4.23706259 -0.02034375 6.35668945 -0.05200195 C20.55278218 -0.1246415 32.90178591 3.51905701 45.81958008 9.44604492 C46.59301758 9.78635742 47.36645508 10.12666992 48.16333008 10.47729492 C52.59236219 12.52654858 55.57427234 14.79507372 58.81958008 18.44604492 C56.9350047 19.65133157 55.03640423 20.83470941 53.13208008 22.00854492 C52.07633789 22.66983398 51.0205957 23.33112305 49.93286133 24.01245117 C46.39830631 25.64003171 45.407373 25.7602751 41.81958008 24.44604492 C39.54381331 23.37412579 37.29533758 22.24327721 35.06958008 21.07104492 C22.65852226 14.70338014 10.59931691 12.05113177 -3.36791992 12.13354492 C-4.86621338 12.14091675 -4.86621338 12.14091675 -6.39477539 12.1484375 C-31.87752229 12.54756486 -54.1186527 22.56900325 -71.87573242 40.83666992 C-75.36340007 44.78541905 -78.33537461 49.0183254 -81.18041992 53.44604492 C-81.51041992 52.78604492 -81.84041992 52.12604492 -82.18041992 51.44604492 C-75.92655982 36.02892024 -62.91022131 23.33373315 -49.18041992 14.44604492 C-48.38764648 13.92010742 -47.59487305 13.39416992 -46.77807617 12.85229492 C-32.48146857 3.76919901 -16.77948296 -0.1020439 0 0 Z " fill="#F4F4F4" transform="translate(511.180419921875,154.553955078125)"/>
<path d="M0 0 C5.31098515 -0.75575422 8.63243428 1.85352018 12.9375 4.5625 C19.2700186 8.41860711 25.60919492 11.91021659 32.27734375 15.15625 C36.72079724 17.33006072 41.0717336 19.67532045 45.4375 22 C53.5131762 26.27259613 61.65766648 30.26908805 70 34 C70.91023926 34.40863281 71.82047852 34.81726563 72.75830078 35.23828125 C96.54293786 45.88937861 120.55528853 56.04334032 145.6640625 63.17578125 C148 64 148 64 150 66 C150.1875 68.5625 150.1875 68.5625 150 71 C149 72 149 72 145.82421875 72.359375 C139.14314391 72.25861805 133.0038357 69.53367929 126.8125 67.25 C125.44206419 66.7539878 124.07153856 66.25822369 122.70092773 65.76269531 C108.61365777 60.6284304 94.7811153 54.90176318 81 49 C80.15324707 48.63890137 79.30649414 48.27780273 78.43408203 47.90576172 C68.86012511 43.81262274 59.3905283 39.49676916 50 35 C49.39285156 34.7107666 48.78570312 34.4215332 48.16015625 34.12353516 C37.34942275 28.94386818 26.94587129 23.09841694 16.54296875 17.1484375 C11.77145841 14.41967424 6.95323125 11.78624053 2.1105957 9.18603516 C0 8 0 8 -1 7 C-0.71269945 4.66055264 -0.38063221 2.3260857 0 0 Z " fill="#F0F0F0" transform="translate(425,305)"/>
<path d="M0 0 C5.04465388 2.56991801 9.37799065 6.29665109 12.3125 11.1875 C13.3606242 15.47528082 13.62975331 19.62068104 13 24 C10.9375 26.8125 10.9375 26.8125 9 29 C9.07189706 32.01967634 9.37035117 33.39553712 11.5625 35.5 C13 37 13 37 13.375 39.5 C13 42 13 42 11.8125 43.8125 C9.35666089 45.42149804 7.90604241 45.2676618 5 45 C-0.27395738 42.3318934 -6.3011072 38.3977856 -9 33 C-9.39231417 28.29223 -9.47336758 25.92920303 -7.3125 21.6875 C-5.00286326 19.00332757 -3.20145037 17.47759248 0 16 C0.99 16 1.98 16 3 16 C0.62370911 11.85329961 0.62370911 11.85329961 -3 9 C-7.68267178 8.42871404 -11.09643787 8.52264642 -15.3125 10.75 C-17.68301707 12.73461894 -19.89694446 14.73517095 -22 17 C-21.11177331 10.96005852 -19.09541846 6.61615997 -14.4375 2.625 C-9.77162952 -0.64025006 -5.53842979 -1.08906939 0 0 Z " fill="#050505" transform="translate(478,229)"/>
<path d="M0 0 C-0.185625 0.804375 -0.37125 1.60875 -0.5625 2.4375 C-0.7790625 3.7059375 -0.7790625 3.7059375 -1 5 C-0.67 5.33 -0.34 5.66 0 6 C0.12487758 7.80927281 0.17570846 9.62396107 0.1875 11.4375 C0.20167969 12.42621094 0.21585938 13.41492188 0.23046875 14.43359375 C0 17 0 17 -2 19 C-7.32100003 19 -11.07413415 15.18550405 -15 12 C-13.90750083 6.90167055 -11.83463978 4.30320058 -7.88671875 1.125 C-5.2000997 -0.47695919 -3.0438687 -0.4454442 0 0 Z " fill="#050505" transform="translate(581,238)"/>
<path d="M0 0 C3.42430894 1.23655601 6.40112619 2.40112619 9 5 C9.25 7.6875 9.25 7.6875 9 10 C0.98837209 6.97674419 0.98837209 6.97674419 -1 3 C-0.67 2.01 -0.34 1.02 0 0 Z " fill="#0F0F0F" transform="translate(596,275)"/>
<path d="M0 0 C0.66 0.99 1.32 1.98 2 3 C0.02 5.64 -1.96 8.28 -4 11 C-4.33 10.34 -4.66 9.68 -5 9 C-4.00390625 6.8359375 -4.00390625 6.8359375 -2.5625 4.375 C-2.08941406 3.55773437 -1.61632812 2.74046875 -1.12890625 1.8984375 C-0.75636719 1.27195313 -0.38382812 0.64546875 0 0 Z " fill="#C7C7C7" transform="translate(434,197)"/>
</svg>
